HIERARCHY
ROOT root
{
	OFFSET 0.000000 0.000000 0.000000
	CHANNELS 6 Xposition Yposition Zposition Zrotation Yrotation Xrotation
	JOINT lhip
	{
		OFFSET 0.058581 -0.082280 -0.017664
		CHANNELS 3 Zrotation Yrotation Xrotation
		JOINT lknee
		{
			OFFSET 0.043451 -0.386469 0.008037
			CHANNELS 3 Zrotation Yrotation Xrotation
			JOINT lankle
			{
				OFFSET -0.014790 -0.426874 -0.037428
				CHANNELS 3 Zrotation Yrotation Xrotation
				JOINT ltoe
				{
					OFFSET 0.041054 -0.060286 0.122042
					CHANNELS 3 Zrotation Yrotation Xrotation
					End Site
					{
						OFFSET 0.000000 0.000000 0.000000
					}
				}
			}
		}
	}
	JOINT rhip
	{
		OFFSET -0.060310 -0.090513 -0.013543
		CHANNELS 3 Zrotation Yrotation Xrotation
		JOINT rknee
		{
			OFFSET -0.043257 -0.383688 -0.004843
			CHANNELS 3 Zrotation Yrotation Xrotation
			JOINT rankle
			{
				OFFSET 0.019056 -0.420046 -0.034562
				CHANNELS 3 Zrotation Yrotation Xrotation
				JOINT rtoe
				{
					OFFSET -0.034840 -0.062106 0.130323
					CHANNELS 3 Zrotation Yrotation Xrotation
					End Site
					{
						OFFSET 0.000000 0.000000 0.000000
					}
				}
			}
		}
	}
	JOINT lowerback
	{
		OFFSET 0.004439 0.124404 -0.038385
		CHANNELS 3 Zrotation Yrotation Xrotation
		JOINT upperback
		{
			OFFSET 0.004488 0.137956 0.026820
			CHANNELS 3 Zrotation Yrotation Xrotation
			JOINT chest
			{
				OFFSET -0.002265 0.056032 0.002855
				CHANNELS 3 Zrotation Yrotation Xrotation
				JOINT lowerneck
				{
					OFFSET -0.013390 0.211636 -0.033468
					CHANNELS 3 Zrotation Yrotation Xrotation
					JOINT upperneck
					{
						OFFSET 0.010113 0.088937 0.050410
						CHANNELS 3 Zrotation Yrotation Xrotation
						End Site
						{
							OFFSET 0.000000 0.000000 0.000000
						}
					}
				}
				JOINT lclavicle
				{
					OFFSET 0.071702 0.114000 -0.018898
					CHANNELS 3 Zrotation Yrotation Xrotation
					JOINT lshoulder
					{
						OFFSET 0.122921 0.045205 -0.019046
						CHANNELS 3 Zrotation Yrotation Xrotation
						JOINT lelbow
						{
							OFFSET 0.255332 -0.015649 -0.022946
							CHANNELS 3 Zrotation Yrotation Xrotation
							JOINT lwrist
							{
								OFFSET 0.265709 0.012698 -0.007375
								CHANNELS 3 Zrotation Yrotation Xrotation
								End Site
								{
									OFFSET 0.000000 0.000000 0.000000
								}
							}
						}
					}
				}
				JOINT rclavicle
				{
					OFFSET -0.082954 0.112472 -0.023707
					CHANNELS 3 Zrotation Yrotation Xrotation
					JOINT rshoulder
					{
						OFFSET -0.113228 0.046853 -0.008472
						CHANNELS 3 Zrotation Yrotation Xrotation
						JOINT relbow
						{
							OFFSET -0.260127 -0.014369 -0.031269
							CHANNELS 3 Zrotation Yrotation Xrotation
							JOINT rwrist
							{
								OFFSET -0.269108 0.006794 -0.006027
								CHANNELS 3 Zrotation Yrotation Xrotation
								End Site
								{
									OFFSET 0.000000 0.000000 0.000000
								}
							}
						}
					}
				}
			}
		}
	}
}
MOTION
Frames: 5
Frame Time: 0.033333
-1.687159 0.244031 0.977751 118.948703 -2.897743 88.322998 0.809097 -5.688608 -0.342003 -2.118324 -14.757640 6.329902 2.531953 5.290912 -12.701163 0.000000 -0.000000 0.000000 -3.324419 -10.438156 -0.183648 -3.351967 -14.851473 17.939717 0.697316 -17.788682 -18.186569 0.000000 -0.000000 0.000000 2.618602 8.608389 5.394717 -3.811638 5.523013 0.235389 0.089321 3.601897 1.654645 -2.800135 34.112726 -0.874656 -3.459328 29.035857 5.534273 -22.965155 4.171714 -5.468998 -62.486237 -3.455631 5.721212 13.412206 -24.394728 8.307871 10.829213 -0.403430 -1.906118 17.142493 -1.766666 5.652055 65.780572 8.622748 13.671647 -20.510398 36.208543 1.021855 -15.685773 3.707264 2.269930 
-1.687452 0.243510 0.977949 118.589819 -2.972977 88.610926 0.782810 -6.183267 -0.392232 -2.059779 -14.633803 5.790199 2.961218 5.757534 -12.568575 0.000000 -0.000000 0.000000 -3.404617 -10.492008 -0.259365 -3.003971 -14.211140 17.366662 0.947253 -18.215290 -18.162135 0.000000 -0.000000 0.000000 2.527462 8.547924 5.186389 -4.106522 5.693584 -0.240393 -0.058798 3.808604 2.007410 -3.026006 33.825082 -1.512220 -2.836196 29.281620 6.029503 -22.936213 4.884755 -5.625724 -62.719987 -4.553078 6.423219 13.948735 -23.639068 3.444425 16.870483 -0.561707 -11.889655 17.522338 -2.357289 4.896115 66.653151 8.014129 15.301676 -19.966055 33.440311 1.121060 -17.651569 3.241873 1.271244 
-1.687775 0.243265 0.978107 118.306490 -2.875103 88.753805 0.888691 -6.077187 -0.503112 -2.015662 -14.656259 5.694397 2.946703 5.927184 -12.533270 0.000000 -0.000000 0.000000 -3.310759 -10.575088 -0.217731 -2.874997 -14.091529 16.889346 0.916083 -17.989395 -18.070553 0.000000 -0.000000 0.000000 2.671856 8.492108 5.246737 -4.319398 5.871653 -0.467923 -0.082417 3.664142 2.066688 -3.613293 33.780934 -1.913649 -2.801470 29.408046 5.720538 -23.184825 5.201926 -6.027896 -62.561531 -4.599255 6.232871 14.600228 -23.398245 2.255464 17.904115 0.071256 -12.455772 17.599508 -2.399084 4.717283 67.555234 7.629367 15.532445 -19.171508 30.783658 1.346338 -18.163486 2.509823 0.948310 
-1.688466 0.243073 0.978274 118.025201 -2.772841 88.928064 1.008072 -6.064636 -0.680356 -2.033604 -14.669406 5.597690 2.942146 6.213218 -12.475161 0.000000 -0.000000 0.000000 -3.247484 -10.648177 -0.337733 -2.705533 -13.905436 16.597972 1.044381 -17.841931 -18.103650 0.000000 -0.000000 0.000000 2.691436 8.448245 5.267759 -4.485271 6.008368 -0.739176 -0.147361 3.516770 2.067309 -3.735755 33.939637 -2.170671 -2.667737 29.397695 5.789477 -23.291901 5.400899 -6.195867 -62.203594 -4.766608 6.375419 14.848305 -23.382784 1.795742 18.289415 0.572235 -12.570106 17.889634 -2.348604 4.209580 68.269422 6.908356 15.893220 -17.942549 27.184659 1.612393 -18.592540 1.599287 0.645613 
-1.688881 0.243079 0.978202 117.890378 -2.693239 88.970519 1.093045 -6.067417 -0.751971 -2.056128 -14.665997 5.611246 2.923344 6.312028 -12.513921 0.000000 -0.000000 0.000000 -3.187528 -10.677612 -0.399716 -2.639044 -13.794150 16.522433 1.080095 -17.824251 -18.140326 0.000000 -0.000000 0.000000 2.665177 8.381395 5.294535 -4.525823 5.984130 -0.832133 -0.221336 3.538949 2.026224 -3.510729 34.171251 -2.202476 -2.674337 29.243357 5.916268 -23.224977 5.427786 -6.140238 -62.010545 -4.907400 6.542018 14.876290 -23.390657 2.103072 17.609696 0.469205 -12.134751 18.162031 -2.175901 3.832375 68.501860 6.333994 16.124558 -17.305237 24.976648 1.920009 -18.471427 1.260902 0.633571 
